<?xml version="1.0" encoding="UTF-8" standalone="no"?>
<!DOCTYPE svg PUBLIC "-//W3C//DTD SVG 1.1//EN"
 "http://www.w3.org/Graphics/SVG/1.1/DTD/svg11.dtd">
<!-- Generated by graphviz version 12.1.2 (20240928.0832)
 -->
<!-- Pages: 1 -->
<svg width="506pt" height="91pt"
 viewBox="0.00 0.00 505.50 91.49" xmlns="http://www.w3.org/2000/svg" xmlns:xlink="http://www.w3.org/1999/xlink">
<g id="graph0" class="graph" transform="scale(1 1) rotate(0) translate(4 87.49)">
<polygon fill="white" stroke="none" points="-4,4 -4,-87.49 501.5,-87.49 501.5,4 -4,4"/>
<!-- &#45;1 -->
<g id="node1" class="node">
<title>&#45;1</title>
<polygon fill="lightgray" stroke="black" points="287.5,-83.49 264,-83.49 264,-64.99 287.5,-64.99 287.5,-83.49"/>
<text text-anchor="middle" x="275.75" y="-70.94" font-family="Times,serif" font-size="9.00">&#45;1</text>
</g>
<!-- 0 -->
<g id="node13" class="node">
<title>0</title>
<ellipse fill="lightblue" stroke="black" cx="204.75" cy="-14.5" rx="14.5" ry="14.5"/>
<text text-anchor="middle" x="204.75" y="-11.2" font-family="Times,serif" font-size="9.00">0</text>
</g>
<!-- &#45;1&#45;&gt;0 -->
<g id="edge1" class="edge">
<title>&#45;1&#45;&gt;0</title>
<path fill="none" stroke="green" stroke-width="0.46" d="M265.27,-64.72C254.39,-55.87 237.12,-41.82 223.81,-30.99"/>
<polygon fill="green" stroke="green" stroke-width="0.46" points="226.25,-28.47 216.28,-24.87 221.83,-33.9 226.25,-28.47"/>
</g>
<!-- 1 -->
<g id="node14" class="node">
<title>1</title>
<ellipse fill="lightblue" stroke="black" cx="251.75" cy="-14.5" rx="14.5" ry="14.5"/>
<text text-anchor="middle" x="251.75" y="-11.2" font-family="Times,serif" font-size="9.00">1</text>
</g>
<!-- &#45;1&#45;&gt;1 -->
<g id="edge2" class="edge">
<title>&#45;1&#45;&gt;1</title>
<path fill="none" stroke="green" stroke-width="0.16" d="M272.21,-64.72C269.23,-57.55 264.83,-46.97 260.88,-37.45"/>
<polygon fill="green" stroke="green" stroke-width="0.16" points="264.16,-36.23 257.09,-28.34 257.69,-38.91 264.16,-36.23"/>
</g>
<!-- 2 -->
<g id="node15" class="node">
<title>2</title>
<ellipse fill="lightblue" stroke="black" cx="298.75" cy="-14.5" rx="14.5" ry="14.5"/>
<text text-anchor="middle" x="298.75" y="-11.2" font-family="Times,serif" font-size="9.00">2</text>
</g>
<!-- &#45;1&#45;&gt;2 -->
<g id="edge3" class="edge">
<title>&#45;1&#45;&gt;2</title>
<path fill="none" stroke="red" stroke-width="0.29" d="M279.14,-64.72C281.93,-57.72 286.02,-47.46 289.74,-38.12"/>
<polygon fill="red" stroke="red" stroke-width="0.29" points="292.94,-39.54 293.39,-28.95 286.44,-36.95 292.94,-39.54"/>
</g>
<!-- &#45;2 -->
<g id="node2" class="node">
<title>&#45;2</title>
<polygon fill="lightgray" stroke="black" points="329.5,-83.49 306,-83.49 306,-64.99 329.5,-64.99 329.5,-83.49"/>
<text text-anchor="middle" x="317.75" y="-70.94" font-family="Times,serif" font-size="9.00">&#45;2</text>
</g>
<!-- &#45;2&#45;&gt;0 -->
<g id="edge4" class="edge">
<title>&#45;2&#45;&gt;0</title>
<path fill="none" stroke="red" stroke-width="0.16" d="M305.56,-67.42C288.32,-59.14 255.9,-43.36 228.75,-28.99 227.78,-28.48 226.79,-27.95 225.79,-27.41"/>
<polygon fill="red" stroke="red" stroke-width="0.16" points="227.56,-24.38 217.11,-22.6 224.17,-30.51 227.56,-24.38"/>
</g>
<!-- &#45;2&#45;&gt;1 -->
<g id="edge5" class="edge">
<title>&#45;2&#45;&gt;1</title>
<path fill="none" stroke="green" stroke-width="0.1" d="M308.01,-64.72C298.01,-55.97 282.21,-42.15 269.9,-31.37"/>
<polygon fill="green" stroke="green" stroke-width="0.1" points="272.35,-28.87 262.52,-24.92 267.74,-34.14 272.35,-28.87"/>
</g>
<!-- &#45;2&#45;&gt;2 -->
<g id="edge6" class="edge">
<title>&#45;2&#45;&gt;2</title>
<path fill="none" stroke="green" stroke-width="0.23" d="M314.95,-64.72C312.64,-57.72 309.27,-47.46 306.19,-38.12"/>
<polygon fill="green" stroke="green" stroke-width="0.23" points="309.6,-37.28 303.15,-28.87 302.95,-39.47 309.6,-37.28"/>
</g>
<!-- &#45;3 -->
<g id="node3" class="node">
<title>&#45;3</title>
<polygon fill="lightgray" stroke="black" points="371.5,-83.49 348,-83.49 348,-64.99 371.5,-64.99 371.5,-83.49"/>
<text text-anchor="middle" x="359.75" y="-70.94" font-family="Times,serif" font-size="9.00">&#45;3</text>
</g>
<!-- &#45;3&#45;&gt;0 -->
<g id="edge7" class="edge">
<title>&#45;3&#45;&gt;0</title>
<path fill="none" stroke="red" stroke-width="0.17" d="M347.8,-68.41C344.86,-67.26 341.7,-66.05 338.75,-64.99 290.35,-47.58 275.84,-49.7 228.75,-28.99 227.74,-28.55 226.72,-28.08 225.7,-27.58"/>
<polygon fill="red" stroke="red" stroke-width="0.17" points="227.43,-24.54 216.96,-22.96 224.16,-30.73 227.43,-24.54"/>
</g>
<!-- &#45;3&#45;&gt;1 -->
<g id="edge8" class="edge">
<title>&#45;3&#45;&gt;1</title>
<path fill="none" stroke="red" stroke-width="0.33" d="M347.73,-67.04C331.38,-58.58 301.23,-42.86 275.75,-28.99 274.78,-28.47 273.8,-27.93 272.8,-27.38"/>
<polygon fill="red" stroke="red" stroke-width="0.33" points="274.8,-24.49 264.37,-22.67 271.39,-30.6 274.8,-24.49"/>
</g>
<!-- &#45;3&#45;&gt;2 -->
<g id="edge9" class="edge">
<title>&#45;3&#45;&gt;2</title>
<path fill="none" stroke="green" stroke-width="0.2" d="M350.75,-64.72C341.7,-56.16 327.52,-42.73 316.25,-32.06"/>
<polygon fill="green" stroke="green" stroke-width="0.2" points="318.9,-29.75 309.23,-25.42 314.09,-34.84 318.9,-29.75"/>
</g>
<!-- &#45;4 -->
<g id="node4" class="node">
<title>&#45;4</title>
<polygon fill="lightgray" stroke="black" points="413.5,-83.49 390,-83.49 390,-64.99 413.5,-64.99 413.5,-83.49"/>
<text text-anchor="middle" x="401.75" y="-70.94" font-family="Times,serif" font-size="9.00">&#45;4</text>
</g>
<!-- &#45;4&#45;&gt;0 -->
<g id="edge10" class="edge">
<title>&#45;4&#45;&gt;0</title>
<path fill="none" stroke="red" stroke-width="0.15" d="M389.86,-68.23C386.91,-67.08 383.74,-65.93 380.75,-64.99 314.5,-44.25 293.42,-54.25 228.75,-28.99 227.73,-28.59 226.69,-28.15 225.66,-27.69"/>
<polygon fill="red" stroke="red" stroke-width="0.15" points="227.33,-24.61 216.84,-23.15 224.13,-30.84 227.33,-24.61"/>
</g>
<!-- &#45;4&#45;&gt;1 -->
<g id="edge11" class="edge">
<title>&#45;4&#45;&gt;1</title>
<path fill="none" stroke="green" stroke-width="0.31" d="M389.79,-68.44C386.84,-67.28 383.69,-66.07 380.75,-64.99 334.45,-47.97 320.77,-49.16 275.75,-28.99 274.75,-28.54 273.73,-28.06 272.71,-27.57"/>
<polygon fill="green" stroke="green" stroke-width="0.31" points="274.63,-24.62 264.16,-23.02 271.35,-30.81 274.63,-24.62"/>
</g>
<!-- &#45;4&#45;&gt;2 -->
<g id="edge12" class="edge">
<title>&#45;4&#45;&gt;2</title>
<path fill="none" stroke="red" stroke-width="0.25" d="M389.53,-66.39C372.43,-56.8 341.11,-39.25 320.11,-27.47"/>
<polygon fill="red" stroke="red" stroke-width="0.25" points="322.03,-24.54 311.6,-22.7 318.61,-30.64 322.03,-24.54"/>
</g>
<!-- &#45;5 -->
<g id="node5" class="node">
<title>&#45;5</title>
<polygon fill="lightgray" stroke="black" points="455.5,-83.49 432,-83.49 432,-64.99 455.5,-64.99 455.5,-83.49"/>
<text text-anchor="middle" x="443.75" y="-70.94" font-family="Times,serif" font-size="9.00">&#45;5</text>
</g>
<!-- &#45;5&#45;&gt;0 -->
<g id="edge13" class="edge">
<title>&#45;5&#45;&gt;0</title>
<path fill="none" stroke="red" stroke-width="0.42" d="M431.89,-68.13C428.94,-66.98 425.76,-65.85 422.75,-64.99 338.44,-40.85 311.19,-58.89 228.75,-28.99 227.85,-28.66 226.94,-28.3 226.02,-27.92"/>
<polygon fill="red" stroke="red" stroke-width="0.42" points="227.67,-24.83 217.16,-23.46 224.52,-31.08 227.67,-24.83"/>
</g>
<!-- &#45;5&#45;&gt;1 -->
<g id="edge14" class="edge">
<title>&#45;5&#45;&gt;1</title>
<path fill="none" stroke="green" stroke-width="0.13" d="M431.86,-68.25C428.91,-67.1 425.74,-65.94 422.75,-64.99 358.64,-44.65 338.31,-53.7 275.75,-28.99 274.73,-28.59 273.69,-28.15 272.66,-27.68"/>
<polygon fill="green" stroke="green" stroke-width="0.13" points="274.31,-24.59 263.82,-23.12 271.1,-30.81 274.31,-24.59"/>
</g>
<!-- &#45;5&#45;&gt;2 -->
<g id="edge15" class="edge">
<title>&#45;5&#45;&gt;2</title>
<path fill="none" stroke="red" stroke-width="0.31" d="M431.88,-68.52C407.82,-58.93 352.91,-37.07 321.65,-24.61"/>
<polygon fill="red" stroke="red" stroke-width="0.31" points="323.05,-21.41 312.47,-20.96 320.46,-27.91 323.05,-21.41"/>
</g>
<!-- &#45;6 -->
<g id="node6" class="node">
<title>&#45;6</title>
<polygon fill="lightgray" stroke="black" points="497.5,-83.49 474,-83.49 474,-64.99 497.5,-64.99 497.5,-83.49"/>
<text text-anchor="middle" x="485.75" y="-70.94" font-family="Times,serif" font-size="9.00">&#45;6</text>
</g>
<!-- &#45;6&#45;&gt;0 -->
<g id="edge16" class="edge">
<title>&#45;6&#45;&gt;0</title>
<path fill="none" stroke="green" stroke-width="0.28" d="M473.91,-68.06C470.96,-66.92 467.78,-65.81 464.75,-64.99 362.29,-37.42 329.06,-63.56 228.75,-28.99 227.71,-28.63 226.66,-28.23 225.62,-27.79"/>
<polygon fill="green" stroke="green" stroke-width="0.28" points="227.45,-24.8 216.94,-23.44 224.32,-31.06 227.45,-24.8"/>
</g>
<!-- &#45;6&#45;&gt;1 -->
<g id="edge17" class="edge">
<title>&#45;6&#45;&gt;1</title>
<path fill="none" stroke="green" stroke-width="0.37" d="M473.89,-68.14C470.94,-66.99 467.76,-65.86 464.75,-64.99 382.6,-41.26 356.07,-58.33 275.75,-28.99 274.85,-28.66 273.94,-28.3 273.03,-27.91"/>
<polygon fill="green" stroke="green" stroke-width="0.37" points="274.6,-24.79 264.1,-23.41 271.45,-31.04 274.6,-24.79"/>
</g>
<!-- &#45;6&#45;&gt;2 -->
<g id="edge18" class="edge">
<title>&#45;6&#45;&gt;2</title>
<path fill="none" stroke="red" stroke-width="0.27" d="M473.82,-68.35C470.87,-67.2 467.71,-66.01 464.75,-64.99 414.69,-47.73 354.95,-30.8 322.54,-21.91"/>
<polygon fill="red" stroke="red" stroke-width="0.27" points="323.62,-18.57 313.05,-19.32 321.78,-25.33 323.62,-18.57"/>
</g>
<!-- &#45;7 -->
<g id="node7" class="node">
<title>&#45;7</title>
<polygon fill="lightgray" stroke="black" points="23.5,-83.49 0,-83.49 0,-64.99 23.5,-64.99 23.5,-83.49"/>
<text text-anchor="middle" x="11.75" y="-70.94" font-family="Times,serif" font-size="9.00">&#45;7</text>
</g>
<!-- &#45;7&#45;&gt;0 -->
<g id="edge19" class="edge">
<title>&#45;7&#45;&gt;0</title>
<path fill="none" stroke="green" stroke-width="0.15" d="M23.67,-68.33C26.62,-67.18 29.78,-66 32.75,-64.99 85.05,-47.24 147.65,-30.27 181.03,-21.56"/>
<polygon fill="green" stroke="green" stroke-width="0.15" points="181.77,-24.99 190.57,-19.09 180.01,-18.21 181.77,-24.99"/>
</g>
<!-- &#45;7&#45;&gt;1 -->
<g id="edge20" class="edge">
<title>&#45;7&#45;&gt;1</title>
<path fill="none" stroke="red" stroke-width="0.3" d="M23.61,-68.13C26.56,-66.98 29.74,-65.85 32.75,-64.99 117.49,-40.77 144.88,-59 227.75,-28.99 228.78,-28.62 229.83,-28.2 230.87,-27.75"/>
<polygon fill="red" stroke="red" stroke-width="0.3" points="232.17,-31.02 239.51,-23.37 229.01,-24.77 232.17,-31.02"/>
</g>
<!-- &#45;7&#45;&gt;2 -->
<g id="edge21" class="edge">
<title>&#45;7&#45;&gt;2</title>
<path fill="none" stroke="red" stroke-width="0.11" d="M23.59,-68.05C26.54,-66.91 29.72,-65.8 32.75,-64.99 137.81,-36.93 171.88,-64.22 274.75,-28.99 275.79,-28.64 276.84,-28.23 277.88,-27.8"/>
<polygon fill="red" stroke="red" stroke-width="0.11" points="279.42,-30.94 286.8,-23.34 276.29,-24.68 279.42,-30.94"/>
</g>
<!-- &#45;8 -->
<g id="node8" class="node">
<title>&#45;8</title>
<polygon fill="lightgray" stroke="black" points="65.5,-83.49 42,-83.49 42,-64.99 65.5,-64.99 65.5,-83.49"/>
<text text-anchor="middle" x="53.75" y="-70.94" font-family="Times,serif" font-size="9.00">&#45;8</text>
</g>
<!-- &#45;8&#45;&gt;0 -->
<g id="edge22" class="edge">
<title>&#45;8&#45;&gt;0</title>
<path fill="none" stroke="green" stroke-width="0.23" d="M65.74,-68.51C68.68,-67.35 71.83,-66.12 74.75,-64.99 112.33,-50.46 156.15,-33.84 182.11,-24.03"/>
<polygon fill="green" stroke="green" stroke-width="0.23" points="183,-27.44 191.12,-20.63 180.53,-20.89 183,-27.44"/>
</g>
<!-- &#45;8&#45;&gt;1 -->
<g id="edge23" class="edge">
<title>&#45;8&#45;&gt;1</title>
<path fill="none" stroke="green" stroke-width="0.38" d="M65.64,-68.23C68.59,-67.08 71.76,-65.93 74.75,-64.99 141.43,-44.17 162.66,-54.36 227.75,-28.99 228.65,-28.64 229.55,-28.26 230.45,-27.86"/>
<polygon fill="green" stroke="green" stroke-width="0.38" points="232.04,-30.98 239.35,-23.31 228.85,-24.75 232.04,-30.98"/>
</g>
<!-- &#45;8&#45;&gt;2 -->
<g id="edge24" class="edge">
<title>&#45;8&#45;&gt;2</title>
<path fill="none" stroke="red" stroke-width="0.3" d="M65.6,-68.12C68.55,-66.97 71.74,-65.85 74.75,-64.99 161.64,-40.36 189.76,-59.55 274.75,-28.99 275.78,-28.62 276.83,-28.21 277.87,-27.76"/>
<polygon fill="red" stroke="red" stroke-width="0.3" points="279.17,-31.02 286.52,-23.39 276.01,-24.78 279.17,-31.02"/>
</g>
<!-- &#45;9 -->
<g id="node9" class="node">
<title>&#45;9</title>
<polygon fill="lightgray" stroke="black" points="107.5,-83.49 84,-83.49 84,-64.99 107.5,-64.99 107.5,-83.49"/>
<text text-anchor="middle" x="95.75" y="-70.94" font-family="Times,serif" font-size="9.00">&#45;9</text>
</g>
<!-- &#45;9&#45;&gt;0 -->
<g id="edge25" class="edge">
<title>&#45;9&#45;&gt;0</title>
<path fill="none" stroke="green" stroke-width="0.16" d="M107.83,-66.84C125.97,-57.23 160.52,-38.93 183.08,-26.97"/>
<polygon fill="green" stroke="green" stroke-width="0.16" points="184.52,-30.17 191.72,-22.4 181.25,-23.99 184.52,-30.17"/>
</g>
<!-- &#45;9&#45;&gt;1 -->
<g id="edge26" class="edge">
<title>&#45;9&#45;&gt;1</title>
<path fill="none" stroke="red" stroke-width="0.39" d="M107.7,-68.4C110.64,-67.25 113.8,-66.05 116.75,-64.99 165.57,-47.5 180.25,-49.8 227.75,-28.99 228.63,-28.61 229.52,-28.2 230.42,-27.77"/>
<polygon fill="red" stroke="red" stroke-width="0.39" points="232.04,-30.87 239.26,-23.11 228.78,-24.67 232.04,-30.87"/>
</g>
<!-- &#45;9&#45;&gt;2 -->
<g id="edge27" class="edge">
<title>&#45;9&#45;&gt;2</title>
<path fill="none" stroke="red" stroke-width="0.26" d="M107.63,-68.21C110.58,-67.07 113.76,-65.91 116.75,-64.99 185.57,-43.76 207.55,-54.91 274.75,-28.99 275.78,-28.6 276.81,-28.16 277.85,-27.7"/>
<polygon fill="red" stroke="red" stroke-width="0.26" points="279.22,-30.93 286.52,-23.25 276.02,-24.7 279.22,-30.93"/>
</g>
<!-- &#45;10 -->
<g id="node10" class="node">
<title>&#45;10</title>
<polygon fill="lightgray" stroke="black" points="153.75,-83.49 125.75,-83.49 125.75,-64.99 153.75,-64.99 153.75,-83.49"/>
<text text-anchor="middle" x="139.75" y="-70.94" font-family="Times,serif" font-size="9.00">&#45;10</text>
</g>
<!-- &#45;10&#45;&gt;0 -->
<g id="edge28" class="edge">
<title>&#45;10&#45;&gt;0</title>
<path fill="none" stroke="red" stroke-width="0.17" d="M149.34,-64.72C159.19,-55.97 174.75,-42.15 186.88,-31.37"/>
<polygon fill="red" stroke="red" stroke-width="0.17" points="188.91,-34.25 194.06,-24.99 184.26,-29.02 188.91,-34.25"/>
</g>
<!-- &#45;10&#45;&gt;1 -->
<g id="edge29" class="edge">
<title>&#45;10&#45;&gt;1</title>
<path fill="none" stroke="green" stroke-width="0.19" d="M154.18,-66.24C171.7,-57.68 202.09,-42.65 227.75,-28.99 228.72,-28.47 229.71,-27.94 230.71,-27.4"/>
<polygon fill="green" stroke="green" stroke-width="0.19" points="232.29,-30.52 239.34,-22.61 228.9,-24.4 232.29,-30.52"/>
</g>
<!-- &#45;10&#45;&gt;2 -->
<g id="edge30" class="edge">
<title>&#45;10&#45;&gt;2</title>
<path fill="none" stroke="green" stroke-width="0.27" d="M153.83,-68.11C156.77,-67.06 159.86,-65.97 162.75,-64.99 212.25,-48.16 226.83,-49.91 274.75,-28.99 275.76,-28.55 276.78,-28.08 277.8,-27.59"/>
<polygon fill="green" stroke="green" stroke-width="0.27" points="279.21,-30.8 286.42,-23.04 275.95,-24.61 279.21,-30.8"/>
</g>
<!-- &#45;11 -->
<g id="node11" class="node">
<title>&#45;11</title>
<polygon fill="lightgray" stroke="black" points="199.75,-83.49 171.75,-83.49 171.75,-64.99 199.75,-64.99 199.75,-83.49"/>
<text text-anchor="middle" x="185.75" y="-70.94" font-family="Times,serif" font-size="9.00">&#45;11</text>
</g>
<!-- &#45;11&#45;&gt;0 -->
<g id="edge31" class="edge">
<title>&#45;11&#45;&gt;0</title>
<path fill="none" stroke="green" stroke-width="0.49" d="M188.55,-64.72C190.81,-57.87 194.09,-47.9 197.11,-38.72"/>
<polygon fill="green" stroke="green" stroke-width="0.49" points="200.42,-39.84 200.22,-29.25 193.77,-37.66 200.42,-39.84"/>
</g>
<!-- &#45;11&#45;&gt;1 -->
<g id="edge32" class="edge">
<title>&#45;11&#45;&gt;1</title>
<path fill="none" stroke="green" stroke-width="0.34" d="M195.49,-64.72C205.39,-56.05 220.99,-42.41 233.25,-31.68"/>
<polygon fill="green" stroke="green" stroke-width="0.34" points="235.49,-34.37 240.71,-25.16 230.88,-29.11 235.49,-34.37"/>
</g>
<!-- &#45;11&#45;&gt;2 -->
<g id="edge33" class="edge">
<title>&#45;11&#45;&gt;2</title>
<path fill="none" stroke="green" stroke-width="0.28" d="M200.04,-66.41C217.72,-57.9 248.67,-42.8 274.75,-28.99 275.72,-28.48 276.71,-27.95 277.71,-27.41"/>
<polygon fill="green" stroke="green" stroke-width="0.28" points="279.18,-30.59 286.24,-22.69 275.79,-24.47 279.18,-30.59"/>
</g>
<!-- &#45;12 -->
<g id="node12" class="node">
<title>&#45;12</title>
<polygon fill="lightgray" stroke="black" points="245.75,-83.49 217.75,-83.49 217.75,-64.99 245.75,-64.99 245.75,-83.49"/>
<text text-anchor="middle" x="231.75" y="-70.94" font-family="Times,serif" font-size="9.00">&#45;12</text>
</g>
<!-- &#45;12&#45;&gt;0 -->
<g id="edge34" class="edge">
<title>&#45;12&#45;&gt;0</title>
<path fill="none" stroke="red" stroke-width="0.15" d="M227.77,-64.72C224.38,-57.47 219.36,-46.75 214.88,-37.15"/>
<polygon fill="red" stroke="red" stroke-width="0.15" points="218.15,-35.89 210.74,-28.31 211.81,-38.86 218.15,-35.89"/>
</g>
<!-- &#45;12&#45;&gt;1 -->
<g id="edge35" class="edge">
<title>&#45;12&#45;&gt;1</title>
<path fill="none" stroke="red" stroke-width="0.17" d="M234.7,-64.72C237.13,-57.72 240.68,-47.46 243.91,-38.12"/>
<polygon fill="red" stroke="red" stroke-width="0.17" points="247.18,-39.38 247.15,-28.79 240.57,-37.09 247.18,-39.38"/>
</g>
<!-- &#45;12&#45;&gt;2 -->
<g id="edge36" class="edge">
<title>&#45;12&#45;&gt;2</title>
<path fill="none" stroke="green" stroke-width="0.14" d="M241.64,-64.72C251.79,-55.97 267.83,-42.15 280.33,-31.37"/>
<polygon fill="green" stroke="green" stroke-width="0.14" points="282.49,-34.13 287.78,-24.95 277.92,-28.83 282.49,-34.13"/>
</g>
</g>
</svg>
