<?xml version="1.0" encoding="UTF-8" standalone="no"?>
<!DOCTYPE svg PUBLIC "-//W3C//DTD SVG 1.1//EN"
 "http://www.w3.org/Graphics/SVG/1.1/DTD/svg11.dtd">
<!-- Generated by graphviz version 12.1.2 (20240928.0832)
 -->
<!-- Pages: 1 -->
<svg width="506pt" height="91pt"
 viewBox="0.00 0.00 505.50 91.49" xmlns="http://www.w3.org/2000/svg" xmlns:xlink="http://www.w3.org/1999/xlink">
<g id="graph0" class="graph" transform="scale(1 1) rotate(0) translate(4 87.49)">
<polygon fill="white" stroke="none" points="-4,4 -4,-87.49 501.5,-87.49 501.5,4 -4,4"/>
<!-- &#45;1 -->
<g id="node1" class="node">
<title>&#45;1</title>
<polygon fill="lightgray" stroke="black" points="287.5,-83.49 264,-83.49 264,-64.99 287.5,-64.99 287.5,-83.49"/>
<text text-anchor="middle" x="275.75" y="-70.94" font-family="Times,serif" font-size="9.00">&#45;1</text>
</g>
<!-- 0 -->
<g id="node13" class="node">
<title>0</title>
<ellipse fill="lightblue" stroke="black" cx="204.75" cy="-14.5" rx="14.5" ry="14.5"/>
<text text-anchor="middle" x="204.75" y="-11.2" font-family="Times,serif" font-size="9.00">0</text>
</g>
<!-- &#45;1&#45;&gt;0 -->
<g id="edge1" class="edge">
<title>&#45;1&#45;&gt;0</title>
<path fill="none" stroke="green" stroke-width="0.13" d="M265.27,-64.72C254.28,-55.78 236.79,-41.55 223.43,-30.69"/>
<polygon fill="green" stroke="green" stroke-width="0.13" points="225.85,-28.15 215.89,-24.55 221.44,-33.58 225.85,-28.15"/>
</g>
<!-- 1 -->
<g id="node14" class="node">
<title>1</title>
<ellipse fill="lightblue" stroke="black" cx="251.75" cy="-14.5" rx="14.5" ry="14.5"/>
<text text-anchor="middle" x="251.75" y="-11.2" font-family="Times,serif" font-size="9.00">1</text>
</g>
<!-- &#45;1&#45;&gt;1 -->
<g id="edge2" class="edge">
<title>&#45;1&#45;&gt;1</title>
<path fill="none" stroke="green" stroke-width="0.11" d="M272.21,-64.72C269.23,-57.55 264.83,-46.97 260.88,-37.45"/>
<polygon fill="green" stroke="green" stroke-width="0.11" points="264.12,-36.15 257.05,-28.26 257.66,-38.84 264.12,-36.15"/>
</g>
<!-- 2 -->
<g id="node15" class="node">
<title>2</title>
<ellipse fill="lightblue" stroke="black" cx="298.75" cy="-14.5" rx="14.5" ry="14.5"/>
<text text-anchor="middle" x="298.75" y="-11.2" font-family="Times,serif" font-size="9.00">2</text>
</g>
<!-- &#45;1&#45;&gt;2 -->
<g id="edge3" class="edge">
<title>&#45;1&#45;&gt;2</title>
<path fill="none" stroke="green" stroke-width="0.13" d="M279.14,-64.72C281.96,-57.64 286.11,-47.24 289.86,-37.82"/>
<polygon fill="green" stroke="green" stroke-width="0.13" points="293.03,-39.31 293.48,-28.73 286.53,-36.72 293.03,-39.31"/>
</g>
<!-- &#45;2 -->
<g id="node2" class="node">
<title>&#45;2</title>
<polygon fill="lightgray" stroke="black" points="329.5,-83.49 306,-83.49 306,-64.99 329.5,-64.99 329.5,-83.49"/>
<text text-anchor="middle" x="317.75" y="-70.94" font-family="Times,serif" font-size="9.00">&#45;2</text>
</g>
<!-- &#45;2&#45;&gt;0 -->
<g id="edge4" class="edge">
<title>&#45;2&#45;&gt;0</title>
<path fill="none" stroke="red" stroke-width="0.12" d="M305.56,-67.42C288.32,-59.14 255.9,-43.36 228.75,-28.99 227.78,-28.48 226.79,-27.95 225.79,-27.41"/>
<polygon fill="red" stroke="red" stroke-width="0.12" points="227.5,-24.35 217.05,-22.57 224.11,-30.47 227.5,-24.35"/>
</g>
<!-- &#45;2&#45;&gt;1 -->
<g id="edge5" class="edge">
<title>&#45;2&#45;&gt;1</title>
<path fill="none" stroke="red" stroke-width="0.25" d="M308.01,-64.72C298.01,-55.97 282.21,-42.15 269.9,-31.37"/>
<polygon fill="red" stroke="red" stroke-width="0.25" points="272.52,-29.02 262.69,-25.07 267.92,-34.29 272.52,-29.02"/>
</g>
<!-- &#45;2&#45;&gt;2 -->
<g id="edge6" class="edge">
<title>&#45;2&#45;&gt;2</title>
<path fill="none" stroke="red" stroke-width="0.13" d="M314.95,-64.72C312.64,-57.72 309.27,-47.46 306.19,-38.12"/>
<polygon fill="red" stroke="red" stroke-width="0.13" points="309.55,-37.13 303.1,-28.73 302.9,-39.32 309.55,-37.13"/>
</g>
<!-- &#45;3 -->
<g id="node3" class="node">
<title>&#45;3</title>
<polygon fill="lightgray" stroke="black" points="371.5,-83.49 348,-83.49 348,-64.99 371.5,-64.99 371.5,-83.49"/>
<text text-anchor="middle" x="359.75" y="-70.94" font-family="Times,serif" font-size="9.00">&#45;3</text>
</g>
<!-- &#45;3&#45;&gt;0 -->
<g id="edge7" class="edge">
<title>&#45;3&#45;&gt;0</title>
<path fill="none" stroke="green" stroke-width="0.36" d="M347.8,-68.41C344.86,-67.26 341.7,-66.05 338.75,-64.99 290.35,-47.58 275.84,-49.7 228.75,-28.99 227.74,-28.55 226.72,-28.08 225.7,-27.58"/>
<polygon fill="green" stroke="green" stroke-width="0.36" points="227.68,-24.67 217.2,-23.09 224.41,-30.86 227.68,-24.67"/>
</g>
<!-- &#45;3&#45;&gt;1 -->
<g id="edge8" class="edge">
<title>&#45;3&#45;&gt;1</title>
<path fill="none" stroke="green" stroke-width="0.19" d="M347.73,-67.04C331.38,-58.58 301.23,-42.86 275.75,-28.99 274.78,-28.47 273.8,-27.93 272.8,-27.38"/>
<polygon fill="green" stroke="green" stroke-width="0.19" points="274.61,-24.38 264.17,-22.56 271.2,-30.49 274.61,-24.38"/>
</g>
<!-- &#45;3&#45;&gt;2 -->
<g id="edge9" class="edge">
<title>&#45;3&#45;&gt;2</title>
<path fill="none" stroke="red" stroke-width="0.15" d="M350.75,-64.72C341.7,-56.16 327.52,-42.73 316.25,-32.06"/>
<polygon fill="red" stroke="red" stroke-width="0.15" points="318.84,-29.7 309.17,-25.36 314.03,-34.78 318.84,-29.7"/>
</g>
<!-- &#45;4 -->
<g id="node4" class="node">
<title>&#45;4</title>
<polygon fill="lightgray" stroke="black" points="413.5,-83.49 390,-83.49 390,-64.99 413.5,-64.99 413.5,-83.49"/>
<text text-anchor="middle" x="401.75" y="-70.94" font-family="Times,serif" font-size="9.00">&#45;4</text>
</g>
<!-- &#45;4&#45;&gt;0 -->
<g id="edge10" class="edge">
<title>&#45;4&#45;&gt;0</title>
<path fill="none" stroke="green" stroke-width="0.19" d="M389.86,-68.23C386.91,-67.08 383.74,-65.93 380.75,-64.99 314.5,-44.25 293.42,-54.25 228.75,-28.99 227.73,-28.59 226.69,-28.15 225.66,-27.69"/>
<polygon fill="green" stroke="green" stroke-width="0.19" points="227.38,-24.64 216.89,-23.18 224.18,-30.86 227.38,-24.64"/>
</g>
<!-- &#45;4&#45;&gt;1 -->
<g id="edge11" class="edge">
<title>&#45;4&#45;&gt;1</title>
<path fill="none" stroke="green" stroke-width="0.17" d="M389.79,-68.44C386.84,-67.28 383.69,-66.07 380.75,-64.99 334.45,-47.97 320.77,-49.16 275.75,-28.99 274.75,-28.54 273.73,-28.06 272.71,-27.57"/>
<polygon fill="green" stroke="green" stroke-width="0.17" points="274.44,-24.52 263.97,-22.92 271.16,-30.71 274.44,-24.52"/>
</g>
<!-- &#45;4&#45;&gt;2 -->
<g id="edge12" class="edge">
<title>&#45;4&#45;&gt;2</title>
<path fill="none" stroke="green" stroke-width="0.17" d="M389.53,-66.39C372.43,-56.8 341.11,-39.25 320.11,-27.47"/>
<polygon fill="green" stroke="green" stroke-width="0.17" points="321.94,-24.48 311.51,-22.65 318.52,-30.59 321.94,-24.48"/>
</g>
<!-- &#45;5 -->
<g id="node5" class="node">
<title>&#45;5</title>
<polygon fill="lightgray" stroke="black" points="455.5,-83.49 432,-83.49 432,-64.99 455.5,-64.99 455.5,-83.49"/>
<text text-anchor="middle" x="443.75" y="-70.94" font-family="Times,serif" font-size="9.00">&#45;5</text>
</g>
<!-- &#45;5&#45;&gt;0 -->
<g id="edge13" class="edge">
<title>&#45;5&#45;&gt;0</title>
<path fill="none" stroke="green" stroke-width="0.4" d="M431.89,-68.13C428.94,-66.98 425.76,-65.85 422.75,-64.99 338.44,-40.85 311.19,-58.89 228.75,-28.99 227.85,-28.66 226.94,-28.3 226.02,-27.92"/>
<polygon fill="green" stroke="green" stroke-width="0.4" points="227.63,-24.81 217.12,-23.44 224.48,-31.06 227.63,-24.81"/>
</g>
<!-- &#45;5&#45;&gt;1 -->
<g id="edge14" class="edge">
<title>&#45;5&#45;&gt;1</title>
<path fill="none" stroke="green" stroke-width="0.42" d="M431.86,-68.25C428.91,-67.1 425.74,-65.94 422.75,-64.99 358.64,-44.65 338.31,-53.7 275.75,-28.99 274.86,-28.64 273.95,-28.26 273.05,-27.85"/>
<polygon fill="green" stroke="green" stroke-width="0.42" points="274.71,-24.77 264.21,-23.32 271.51,-31 274.71,-24.77"/>
</g>
<!-- &#45;5&#45;&gt;2 -->
<g id="edge15" class="edge">
<title>&#45;5&#45;&gt;2</title>
<path fill="none" stroke="green" stroke-width="0.34" d="M431.88,-68.52C407.82,-58.93 352.91,-37.07 321.65,-24.61"/>
<polygon fill="green" stroke="green" stroke-width="0.34" points="323.09,-21.42 312.51,-20.97 320.5,-27.93 323.09,-21.42"/>
</g>
<!-- &#45;6 -->
<g id="node6" class="node">
<title>&#45;6</title>
<polygon fill="lightgray" stroke="black" points="497.5,-83.49 474,-83.49 474,-64.99 497.5,-64.99 497.5,-83.49"/>
<text text-anchor="middle" x="485.75" y="-70.94" font-family="Times,serif" font-size="9.00">&#45;6</text>
</g>
<!-- &#45;6&#45;&gt;0 -->
<g id="edge16" class="edge">
<title>&#45;6&#45;&gt;0</title>
<path fill="none" stroke="green" stroke-width="0.27" d="M473.91,-68.06C470.96,-66.92 467.78,-65.81 464.75,-64.99 362.29,-37.42 329.06,-63.56 228.75,-28.99 227.71,-28.63 226.66,-28.23 225.62,-27.79"/>
<polygon fill="green" stroke="green" stroke-width="0.27" points="227.43,-24.78 216.92,-23.43 224.29,-31.04 227.43,-24.78"/>
</g>
<!-- &#45;6&#45;&gt;1 -->
<g id="edge17" class="edge">
<title>&#45;6&#45;&gt;1</title>
<path fill="none" stroke="green" stroke-width="0.17" d="M473.89,-68.14C470.94,-66.99 467.76,-65.86 464.75,-64.99 382.6,-41.26 356.07,-58.33 275.75,-28.99 274.72,-28.61 273.68,-28.2 272.64,-27.75"/>
<polygon fill="green" stroke="green" stroke-width="0.17" points="274.32,-24.68 263.82,-23.27 271.15,-30.92 274.32,-24.68"/>
</g>
<!-- &#45;6&#45;&gt;2 -->
<g id="edge18" class="edge">
<title>&#45;6&#45;&gt;2</title>
<path fill="none" stroke="green" stroke-width="0.32" d="M473.82,-68.35C470.87,-67.2 467.71,-66.01 464.75,-64.99 414.69,-47.73 354.95,-30.8 322.54,-21.91"/>
<polygon fill="green" stroke="green" stroke-width="0.32" points="323.68,-18.59 313.11,-19.34 321.84,-25.34 323.68,-18.59"/>
</g>
<!-- &#45;7 -->
<g id="node7" class="node">
<title>&#45;7</title>
<polygon fill="lightgray" stroke="black" points="23.5,-83.49 0,-83.49 0,-64.99 23.5,-64.99 23.5,-83.49"/>
<text text-anchor="middle" x="11.75" y="-70.94" font-family="Times,serif" font-size="9.00">&#45;7</text>
</g>
<!-- &#45;7&#45;&gt;0 -->
<g id="edge19" class="edge">
<title>&#45;7&#45;&gt;0</title>
<path fill="none" stroke="red" stroke-width="0.25" d="M23.67,-68.33C26.62,-67.18 29.78,-66 32.75,-64.99 85.05,-47.24 147.65,-30.27 181.03,-21.56"/>
<polygon fill="red" stroke="red" stroke-width="0.25" points="181.63,-25.02 190.43,-19.13 179.87,-18.25 181.63,-25.02"/>
</g>
<!-- &#45;7&#45;&gt;1 -->
<g id="edge20" class="edge">
<title>&#45;7&#45;&gt;1</title>
<path fill="none" stroke="green" stroke-width="0.37" d="M23.61,-68.13C26.56,-66.98 29.74,-65.85 32.75,-64.99 117.49,-40.77 144.88,-59 227.75,-28.99 228.78,-28.62 229.83,-28.2 230.87,-27.75"/>
<polygon fill="green" stroke="green" stroke-width="0.37" points="232.07,-31.07 239.41,-23.43 228.91,-24.82 232.07,-31.07"/>
</g>
<!-- &#45;7&#45;&gt;2 -->
<g id="edge21" class="edge">
<title>&#45;7&#45;&gt;2</title>
<path fill="none" stroke="red" stroke-width="0.2" d="M23.59,-68.05C26.54,-66.91 29.72,-65.8 32.75,-64.99 137.81,-36.93 171.88,-64.22 274.75,-28.99 275.79,-28.64 276.84,-28.23 277.88,-27.8"/>
<polygon fill="red" stroke="red" stroke-width="0.2" points="279.3,-31 286.68,-23.39 276.17,-24.74 279.3,-31"/>
</g>
<!-- &#45;8 -->
<g id="node8" class="node">
<title>&#45;8</title>
<polygon fill="lightgray" stroke="black" points="65.5,-83.49 42,-83.49 42,-64.99 65.5,-64.99 65.5,-83.49"/>
<text text-anchor="middle" x="53.75" y="-70.94" font-family="Times,serif" font-size="9.00">&#45;8</text>
</g>
<!-- &#45;8&#45;&gt;0 -->
<g id="edge22" class="edge">
<title>&#45;8&#45;&gt;0</title>
<path fill="none" stroke="red" stroke-width="0.29" d="M65.74,-68.51C68.68,-67.35 71.83,-66.12 74.75,-64.99 112.17,-50.52 155.76,-33.99 181.76,-24.16"/>
<polygon fill="red" stroke="red" stroke-width="0.29" points="182.91,-27.47 191.03,-20.66 180.44,-20.92 182.91,-27.47"/>
</g>
<!-- &#45;8&#45;&gt;1 -->
<g id="edge23" class="edge">
<title>&#45;8&#45;&gt;1</title>
<path fill="none" stroke="red" stroke-width="0.2" d="M65.64,-68.23C68.59,-67.08 71.76,-65.93 74.75,-64.99 141.43,-44.17 162.66,-54.36 227.75,-28.99 228.77,-28.59 229.81,-28.16 230.84,-27.69"/>
<polygon fill="red" stroke="red" stroke-width="0.2" points="232.31,-30.87 239.6,-23.19 229.11,-24.65 232.31,-30.87"/>
</g>
<!-- &#45;8&#45;&gt;2 -->
<g id="edge24" class="edge">
<title>&#45;8&#45;&gt;2</title>
<path fill="none" stroke="green" stroke-width="0.2" d="M65.6,-68.12C68.55,-66.97 71.74,-65.85 74.75,-64.99 161.64,-40.36 189.76,-59.55 274.75,-28.99 275.78,-28.62 276.83,-28.21 277.87,-27.76"/>
<polygon fill="green" stroke="green" stroke-width="0.2" points="279.31,-30.95 286.65,-23.32 276.15,-24.71 279.31,-30.95"/>
</g>
<!-- &#45;9 -->
<g id="node9" class="node">
<title>&#45;9</title>
<polygon fill="lightgray" stroke="black" points="107.5,-83.49 84,-83.49 84,-64.99 107.5,-64.99 107.5,-83.49"/>
<text text-anchor="middle" x="95.75" y="-70.94" font-family="Times,serif" font-size="9.00">&#45;9</text>
</g>
<!-- &#45;9&#45;&gt;0 -->
<g id="edge25" class="edge">
<title>&#45;9&#45;&gt;0</title>
<path fill="none" stroke="red" stroke-width="0.15" d="M107.83,-66.84C125.97,-57.23 160.52,-38.93 183.08,-26.97"/>
<polygon fill="red" stroke="red" stroke-width="0.15" points="184.55,-30.16 191.74,-22.39 181.27,-23.97 184.55,-30.16"/>
</g>
<!-- &#45;9&#45;&gt;1 -->
<g id="edge26" class="edge">
<title>&#45;9&#45;&gt;1</title>
<path fill="none" stroke="green" stroke-width="0.23" d="M107.7,-68.4C110.64,-67.25 113.8,-66.05 116.75,-64.99 165.57,-47.5 180.25,-49.8 227.75,-28.99 228.76,-28.55 229.78,-28.08 230.8,-27.59"/>
<polygon fill="green" stroke="green" stroke-width="0.23" points="232.26,-30.77 239.47,-23.01 228.99,-24.58 232.26,-30.77"/>
</g>
<!-- &#45;9&#45;&gt;2 -->
<g id="edge27" class="edge">
<title>&#45;9&#45;&gt;2</title>
<path fill="none" stroke="green" stroke-width="0.34" d="M107.63,-68.21C110.58,-67.07 113.76,-65.91 116.75,-64.99 185.57,-43.76 207.55,-54.91 274.75,-28.99 275.78,-28.6 276.81,-28.16 277.85,-27.7"/>
<polygon fill="green" stroke="green" stroke-width="0.34" points="279.11,-30.98 286.41,-23.3 275.92,-24.76 279.11,-30.98"/>
</g>
<!-- &#45;10 -->
<g id="node10" class="node">
<title>&#45;10</title>
<polygon fill="lightgray" stroke="black" points="153.75,-83.49 125.75,-83.49 125.75,-64.99 153.75,-64.99 153.75,-83.49"/>
<text text-anchor="middle" x="139.75" y="-70.94" font-family="Times,serif" font-size="9.00">&#45;10</text>
</g>
<!-- &#45;10&#45;&gt;0 -->
<g id="edge28" class="edge">
<title>&#45;10&#45;&gt;0</title>
<path fill="none" stroke="green" stroke-width="0.1" d="M149.34,-64.72C159.19,-55.97 174.75,-42.15 186.88,-31.37"/>
<polygon fill="green" stroke="green" stroke-width="0.1" points="188.99,-34.18 194.14,-24.92 184.34,-28.94 188.99,-34.18"/>
</g>
<!-- &#45;10&#45;&gt;1 -->
<g id="edge29" class="edge">
<title>&#45;10&#45;&gt;1</title>
<path fill="none" stroke="red" stroke-width="0.26" d="M154.18,-66.24C171.7,-57.68 202.09,-42.65 227.75,-28.99 228.72,-28.47 229.71,-27.94 230.71,-27.4"/>
<polygon fill="red" stroke="red" stroke-width="0.26" points="232.21,-30.57 239.26,-22.66 228.81,-24.45 232.21,-30.57"/>
</g>
<!-- &#45;10&#45;&gt;2 -->
<g id="edge30" class="edge">
<title>&#45;10&#45;&gt;2</title>
<path fill="none" stroke="red" stroke-width="0.16" d="M153.83,-68.11C156.77,-67.06 159.86,-65.97 162.75,-64.99 212.25,-48.16 226.83,-49.91 274.75,-28.99 275.76,-28.55 276.78,-28.08 277.8,-27.59"/>
<polygon fill="red" stroke="red" stroke-width="0.16" points="279.36,-30.72 286.57,-22.96 276.09,-24.53 279.36,-30.72"/>
</g>
<!-- &#45;11 -->
<g id="node11" class="node">
<title>&#45;11</title>
<polygon fill="lightgray" stroke="black" points="199.75,-83.49 171.75,-83.49 171.75,-64.99 199.75,-64.99 199.75,-83.49"/>
<text text-anchor="middle" x="185.75" y="-70.94" font-family="Times,serif" font-size="9.00">&#45;11</text>
</g>
<!-- &#45;11&#45;&gt;0 -->
<g id="edge31" class="edge">
<title>&#45;11&#45;&gt;0</title>
<path fill="none" stroke="red" stroke-width="0.28" d="M188.55,-64.72C190.83,-57.79 194.16,-47.68 197.21,-38.42"/>
<polygon fill="red" stroke="red" stroke-width="0.28" points="200.52,-39.54 200.32,-28.95 193.87,-37.35 200.52,-39.54"/>
</g>
<!-- &#45;11&#45;&gt;1 -->
<g id="edge32" class="edge">
<title>&#45;11&#45;&gt;1</title>
<path fill="none" stroke="green" stroke-width="0.22" d="M195.49,-64.72C205.49,-55.97 221.29,-42.15 233.6,-31.37"/>
<polygon fill="green" stroke="green" stroke-width="0.22" points="235.62,-34.26 240.84,-25.04 231.01,-28.99 235.62,-34.26"/>
</g>
<!-- &#45;11&#45;&gt;2 -->
<g id="edge33" class="edge">
<title>&#45;11&#45;&gt;2</title>
<path fill="none" stroke="green" stroke-width="0.5" d="M200.04,-66.41C217.72,-57.9 248.67,-42.8 274.75,-28.99 275.6,-28.54 276.47,-28.08 277.34,-27.61"/>
<polygon fill="green" stroke="green" stroke-width="0.5" points="278.89,-30.75 285.95,-22.85 275.5,-24.62 278.89,-30.75"/>
</g>
<!-- &#45;12 -->
<g id="node12" class="node">
<title>&#45;12</title>
<polygon fill="lightgray" stroke="black" points="245.75,-83.49 217.75,-83.49 217.75,-64.99 245.75,-64.99 245.75,-83.49"/>
<text text-anchor="middle" x="231.75" y="-70.94" font-family="Times,serif" font-size="9.00">&#45;12</text>
</g>
<!-- &#45;12&#45;&gt;0 -->
<g id="edge34" class="edge">
<title>&#45;12&#45;&gt;0</title>
<path fill="none" stroke="red" stroke-width="0.5" d="M227.77,-64.72C224.45,-57.62 219.57,-47.19 215.16,-37.75"/>
<polygon fill="red" stroke="red" stroke-width="0.5" points="218.37,-36.37 210.97,-28.79 212.03,-39.33 218.37,-36.37"/>
</g>
<!-- &#45;12&#45;&gt;1 -->
<g id="edge35" class="edge">
<title>&#45;12&#45;&gt;1</title>
<path fill="none" stroke="green" stroke-width="0.26" d="M234.7,-64.72C237.13,-57.72 240.68,-47.46 243.91,-38.12"/>
<polygon fill="green" stroke="green" stroke-width="0.26" points="247.14,-39.51 247.1,-28.92 240.52,-37.22 247.14,-39.51"/>
</g>
<!-- &#45;12&#45;&gt;2 -->
<g id="edge36" class="edge">
<title>&#45;12&#45;&gt;2</title>
<path fill="none" stroke="red" stroke-width="0.2" d="M241.64,-64.72C251.79,-55.97 267.83,-42.15 280.33,-31.37"/>
<polygon fill="red" stroke="red" stroke-width="0.2" points="282.42,-34.19 287.71,-25.01 277.85,-28.89 282.42,-34.19"/>
</g>
</g>
</svg>
